<svg id="Layer_1" data-name="Layer 1" xmlns="http://www.w3.org/2000/svg" viewBox="0 0 3444.7998 570.3709"><path d="M2458.13379,1655.708l-3.24463,27.76074q0,43.626,29.20264,59.48633,10.0891,5.4082,24.15527,5.4082a62.60855,62.60855,0,0,0,25.23731-4.86719,53.05731,53.05731,0,0,0,18.38671-12.79882q15.14209-16.22314,15.14209-37.49512,0-21.26807-8.65234-38.57617a227.3044,227.3044,0,0,0-21.63184-34.61035l-28.84228-35.332q-34.97388-41.81835-46.86865-76.252-11.89746-34.42383-11.89746-63.27246a206.77857,206.77857,0,0,1,7.03027-54.62012,228.37084,228.37084,0,0,1,19.64892-49.03125,218.03529,218.03529,0,0,1,30.28418-42.72314,200.20466,200.20466,0,0,1,39.29786-33.52881q45.063-30.28491,89.41064-30.28467,44.34522,0,69.22168,12.2583,24.876,12.26074,40.01855,31.00537,28.12134,35.33716,28.1211,85.44483,0,46.50879-26.31836,87.6084-24.15821,37.50146-54.0791,47.58984-6.49,3.24463-17.84619,3.24512-11.35693,0-19.1084-3.42578a43.99735,43.99735,0,0,1-13.51953-9.19336q-12.624-12.61524-12.61866-27.39942,0-10.08984,6.12891-13.33984,27.39477-14.77881,47.58984-42.90332,21.98658-30.63867,23.07373-61.10938,1.0818-30.46141-14.60107-45.06591-15.68336-14.60157-41.64111-14.60108-25.95777,0-46.86866,11.7168a117.14859,117.14859,0,0,0-36.05273,31.5459q-32.44776,42.54638-32.44775,100.58789,0,38.58252,26.6792,81.47949,11.17089,18.38671,24.33545,36.23242,13.15648,17.84619,24.69628,36.59375,26.313,43.62744,26.31836,78.23535,0,34.60986-12.438,58.40528a139.31687,139.31687,0,0,1-32.98829,41.46093q-44.3452,38.21778-100.94775,38.21582-53.36133,0-82.20068-31.72656-23.07642-25.59522-23.07373-55.52148,0-32.44776,18.38671-54.79981,14.061-16.94238,27.04-20.19043Q2458.12817,1629.75,2458.13379,1655.708Z" transform="translate(-2384.22559 -1234.97119)"/><path d="M2762.05908,1631.55273q1.43628-43.26416,13.51953-91.03418a506.37942,506.37942,0,0,1,32.98877-92.11425,499.13393,499.13393,0,0,1,49.57227-83.28223,391.23383,391.23383,0,0,1,62.91211-67.7793q73.54833-62.00536,154.30615-62.01074,98.061,0,127.98779,89.04981,10.81567,31.36669,9.55371,77.334a402.39309,402.39309,0,0,1-14.06054,93.55664A505.18021,505.18021,0,0,1,3164.228,1587.207a516.719,516.719,0,0,1-51.01465,83.10156,399.56458,399.56458,0,0,1-63.45264,67.23926q-73.19312,62.0127-146.37451,62.01074-65.62208,0-104.19287-42.90332Q2759.89306,1712.67334,2762.05908,1631.55273Zm87.78858-52.998q-11.35693,43.626-12.25782,74.08886-.90453,30.47022,3.605,47.22852,4.50367,16.76514,12.79883,28.30176,17.30567,24.52148,44.52539,24.51562,27.2168,0,54.62012-17.666,27.394-17.66016,53.17773-47.22852a482.06564,482.06564,0,0,0,49.03174-68.13965,631.33807,631.33807,0,0,0,40.91992-80.39843q51.18971-121.49268,37.49512-200.45313-9.37939-54.79761-59.84765-54.80078-46.15358,0-102.75049,62.73242-53.36133,58.4048-91.57422,146.374A567.084,567.084,0,0,0,2849.84766,1578.55469Z" transform="translate(-2384.22559 -1234.97119)"/><path d="M3572.88721,1701.49512q0,34.60986,25.59765,34.61035a58.71317,58.71317,0,0,0,27.58008-6.48926q12.43872-6.48925,16.04346-6.49023,7.571,0,7.57129,7.93164,0,31.73-33.88965,53.3584-23.07642,15.14208-43.98438,15.14257-20.91357,0-33.70947-4.86718a56.254,56.254,0,0,1-22.17236-15.32227q-19.83179-21.63281-19.8291-64.53516,0-33.88329,12.61816-78.59472,12.616-44.69971,18.38721-63.45313L3489.605,1629.75q-116.45581,169.80762-196.48779,169.80859-54.44238,0-71.74512-45.42675-5.40747-14.77881-5.40771-25.958v-13.7002q0-45.42627,50.83447-166.56347l74.98974-174.4961q21.63208-51.91553,21.63184-64.17383,0-12.25268-4.32666-18.3872a37.49056,37.49056,0,0,0-9.73389-9.73389l-9.73437-7.21094q-4.32642-2.88135-4.32617-8.65234,0-5.76344,5.76806-11.53711A51.94264,51.94264,0,0,1,3356.21,1243.624q18.74121-8.28954,36.9541-8.292,18.20068,0,28.1211,3.78516a52.81055,52.81055,0,0,1,16.4038,9.5542q12.616,11.89746,12.61866,28.66211,0,16.7644-6.30908,39.477-6.312,22.71387-16.58448,49.57324-10.27515,26.8623-23.61474,56.7832l-54.8003,120.416q-52.27953,115.0122-52.27636,152.14355v5.40723q0,34.25683,25.958,34.251,47.58985,0,123.66114-119.335,22.71313-35.3291,45.42675-74.62988l43.98438-80.75781q94.45239-182.7876,108.87939-208.38525,7.20777-12.97926,20.5503-12.979,13.33374,0,22.35254,3.78516a51.27063,51.27063,0,0,1,15.50293,9.91455q15.14208,14.42431,7.5708,28.84228-34.25612,65.25879-83.28174,208.7461Q3572.884,1648.49756,3572.88721,1701.49512Z" transform="translate(-2384.22559 -1234.97119)"/><path d="M4048.42383,1359.71387q0-71.73925-94.81934-71.74512-59.4873,0-120.4165,36.05273-17.66821,10.46192-27.58008,19.28809-9.92066,8.83887-18.92773,8.833a35.71133,35.71133,0,0,1-17.30567-4.50586,58.9685,58.9685,0,0,1-14.78125-11.35742q-23.79492-26.313,5.04737-50.834,43.26342-37.12866,143.49023-47.95019,20.18628-2.16358,51.19482-2.16309,31.00269,0,65.436,11.17627,34.42383,11.179,57.86523,30.28418,46.86182,38.58252,46.86817,98.42432,0,71.03027-64.89551,129.42968-56.24121,51.19776-133.03467,73.1875,20.90478,17.30421,39.29785,49.75293l28.84229,51.55469q37.85449,70.30371,67.7793,76.43262a54.88408,54.88408,0,0,0,21.63085-.72168q11.17091-2.51807,14.60157-2.34277,3.42188.186,4.6875,5.94824,1.25976,5.77147-3.06446,14.4209-4.32714,8.65283-14.06054,16.22461-22.71387,18.02343-49.75391,16.043-27.03808-1.98486-43.80371-11.17578a119.33047,119.33047,0,0,1-29.92383-23.25488,180.571,180.571,0,0,1-23.43408-31.36523q-10.27515-17.30566-18.92773-35.332l-16.22364-35.332q-7.571-17.30567-14.06054-29.74316-6.49-12.438-11.17676-22.71387a119.29306,119.29306,0,0,0-10.45508-18.5664q-12.26074-18.74268-31.36621-23.79493-75.71044,194.68506-153.94531,222.085a36.12378,36.12378,0,0,1-13.15918,2.52343,30.10508,30.10508,0,0,1-12.07764-2.34277,28.67456,28.67456,0,0,1-9.01318-5.94922q-7.57106-6.84375-7.57129-15.1416,0-8.28956,5.40771-12.25879,54.07983-39.29151,120.05615-229.2959l21.63184-60.92871q37.12866-105.26953,62.73193-129.79,9.00733-6.84522,18.74707-6.85058a43.17372,43.17372,0,0,1,16.94483,3.06445,47.58527,47.58527,0,0,1,12.61865,7.75195q12.252,10.81494,12.25781,21.99219a40.75063,40.75063,0,0,1-4.86718,20.00879,211.02164,211.02164,0,0,0-10.9961,24.69629q-17.66821,46.15283-27.3999,73.9082l-18.38721,51.916q76.793-10.08839,135.91944-60.208Q4048.42017,1426.41406,4048.42383,1359.71387Z" transform="translate(-2384.22559 -1234.97119)"/><path d="M4157.66406,1644.53125l.36035-10.45508a468.99509,468.99509,0,0,1,54.43946-203.69824q46.50879-87.60937,117.17187-141.688,69.939-53.35254,136.28028-53.35791,50.46972,0,79.67578,34.97119,24.87744,30.28419,24.87695,74.269,0,52.64208-38.57715,103.832-22.3579,29.56494-47.58887,42.542-11.89746,6.48925-22.17285,6.48926a41.71682,41.71682,0,0,1-18.92773-4.32617,57.72725,57.72725,0,0,1-15.1416-10.81543q-13.34327-14.061-13.33985-25.23731,0-11.17089,5.76758-15.50293,59.124-42.53613,80.39844-87.6084,8.28955-17.30566,8.292-33.88965,0-34.96508-33.16894-34.9707-51.91554,0-107.07618,56.60254-51.5625,52.28028-86.52734,131.23242-36.419,81.11865-38.57617,148.89844l-.36035,13.70019q0,81.11866,34.25,106.35547,12.252,9.01612,29.38281,9.0127a116.95109,116.95109,0,0,0,32.26758-4.32617,175.52288,175.52288,0,0,0,30.28418-11.89746q24.51268-12.61524,62.73242-43.624,11.53417-9.00732,19.10742,2.52442a37.08431,37.08431,0,0,1,6.49024,21.63086q0,20.55029-5.58887,27.9414-5.59424,7.39307-19.1084,17.48535a171.45317,171.45317,0,0,1-32.98828,18.748q-45.42627,20.19433-89.04981,20.18945-43.62744,0-70.30371-10.63574a122.08046,122.08046,0,0,1-45.06543-30.46484Q4157.66065,1716.63964,4157.66406,1644.53125Z" transform="translate(-2384.22559 -1234.97119)"/><path d="M4892.41992,1315.36914q0-30.28418-36.05273-30.28418-68.86671,0-125.10352,63.81348-33.17432,37.5-46.50879,81.11816-6.48926,21.27686-6.48925,37.49512,0,16.22462,3.78613,25.77832a48.743,48.743,0,0,0,9.55371,15.68262q12.252,12.97851,28.48144,10.09472,17.66016-7.207,31.18555-7.21,13.52051,0,21.63184,3.42481a40.91156,40.91156,0,0,1,13.15918,8.47168q10.45313,10.09863,10.456,19.46875,0,18.38672-12.25879,19.10839-18.75,1.80762-39.29687,10.45508a252.28064,252.28064,0,0,0-41.46094,22.53321,209.24186,209.24186,0,0,0-37.13477,31.18554q-37.13672,39.66358-37.13378,79.67676,0,19.11328,9.01269,28.8418,15.1421,16.95117,36.05273,16.94531a108.01229,108.01229,0,0,0,40.91993-8.1123,176.71327,176.71327,0,0,0,36.2334-19.64844q24.51269-17.66016,47.58984-45.06641,11.53417-13.69629,20.18945-13.69922,8.65284,0,13.15918,10.27442a53.74326,53.74326,0,0,1,4.50684,21.8125q0,23.79492-9.01367,35.15136a160.0635,160.0635,0,0,1-22.53321,22.71289,176.407,176.407,0,0,1-32.2666,21.09083,208.99347,208.99347,0,0,1-96.62207,23.07421q-86.89014,0-118.97363-56.96386-11.543-21.26807-11.53711-43.624a124.91455,124.91455,0,0,1,6.66992-41.46,169.9058,169.9058,0,0,1,17.125-35.51269,178.78966,178.78966,0,0,1,23.43457-29.56348,254.8526,254.8526,0,0,1,25.59668-22.89355q24.87744-19.46778,41.10059-21.99219-40.74464-16.22314-54.80078-63.0918-4.32568-15.1421-4.32618-36.77441,0-21.63135,8.292-47.76953a215.79416,215.79416,0,0,1,23.43457-50.11329,259.13383,259.13383,0,0,1,36.05273-44.88623,250.40594,250.40594,0,0,1,46.14746-36.41308q54.43506-33.16626,114.64844-33.16846,63.08643,0,94.09765,31.36572,24.87745,25.24,24.877,64.53467,0,44.7085-37.49512,90.49219-22.71387,27.40282-40.91992,37.13477-18.20947,9.73387-28.48145,10.63574a41.94285,41.94285,0,0,1-19.10839-2.52442,49.90128,49.90128,0,0,1-15.32227-9.19336q-14.7876-13.333-14.78223-24.15527,0-13.333,9.374-20.5498l32.44726-23.07422Q4892.41992,1347.09863,4892.41992,1315.36914Z" transform="translate(-2384.22559 -1234.97119)"/><path d="M5335.61719,1734.42969q7.32421,0,7.32422,13.916t-4.15039,22.70508a43.07743,43.07743,0,0,1-11.47461,14.89258q-14.89454,12.45117-39.55078,12.45117-17.09181,0-38.81836-6.958-21.73243-6.958-33.3252-10.13183a81.13678,81.13678,0,0,0-21.24023-3.17383q-9.64746,0-15.625,1.95312a56.22,56.22,0,0,0-10.98633,4.88282q-5.00684,2.92968-9.64356,6.10351-9.76758,6.8379-13.30566,6.83594a13.88243,13.88243,0,0,1-6.958-1.95312,26.52269,26.52269,0,0,1-6.34765-5.127q-6.8379-7.32422-6.83594-11.47461,0-4.14843,4.5166-14.89258,4.51464-10.74023,18.18848-29.66308a447.69432,447.69432,0,0,1,30.27343-37.35352q16.59962-18.43066,35.15625-36.499,54.19923-53.2207,70.43457-70.3125a361.21494,361.21494,0,0,0,28.68653-33.93555q27.0996-36.375,27.09961-65.67383,0-31.00194-22.2168-40.03906-6.83789-2.68359-17.7002-2.68554-10.86621,0-21.85058,6.22558a63.22907,63.22907,0,0,0-18.55469,15.74707q-15.627,19.28907-15.625,41.748,0,20.50781,11.71875,25.39062,4.88087,2.19727,4.88281,6.34766,0,8.78906-8.54492,16.11328-15.873,13.67578-27.09961,13.67188-11.23242,0-18.0664-4.15039a36.83425,36.83425,0,0,1-11.47461-10.98633,51.75589,51.75589,0,0,1-9.27735-29.66309,97.41815,97.41815,0,0,1,3.90625-28.68652,107.20836,107.20836,0,0,1,11.35254-24.78028,134.01708,134.01708,0,0,1,17.82227-22.82714,121.61618,121.61618,0,0,1,23.31543-18.79883q28.56445-17.57812,56.03027-17.57813t43.457,7.32422q15.9873,7.32422,26.001,19.043,18.55078,22.46484,18.55469,57.12891,0,56.88867-55.17579,114.99023A602.43158,602.43158,0,0,1,5271.65234,1669l-46.38671,37.35352q-37.8457,31.2539-52.2461,51.26953,18.79688-8.29687,31.00586-9.15528a176.63966,176.63966,0,0,1,19.89746-.48828q7.69042.36621,16.23535,1.09864,22.459,1.957,35.88868,1.95312a93.66514,93.66514,0,0,0,23.31542-2.56348,80.53059,80.53059,0,0,0,16.11329-5.7373q6.22559-3.16992,10.376-5.73731A18.19753,18.19753,0,0,1,5335.61719,1734.42969Z" transform="translate(-2384.22559 -1234.97119)"/><path d="M5405.56348,1787.65234a40.68669,40.68669,0,0,1-8.667-12.3291,38.44951,38.44951,0,0,1-3.17382-16.11328,36.58783,36.58783,0,0,1,3.54-16.35742,34.14,34.14,0,0,1,8.91113-11.59668q9.52148-7.81055,20.1416-7.8125a95.26,95.26,0,0,1,18.06641,1.46484,58.16587,58.16587,0,0,1,14.03808,4.63868q15.13477,7.8164,15.13672,22.46093a47.05409,47.05409,0,0,1-11.96289,31.98242q-11.23242,12.69727-23.31543,13.916-12.085,1.21875-19.65332-1.83105A39.61078,39.61078,0,0,1,5405.56348,1787.65234Z" transform="translate(-2384.22559 -1234.97119)"/><path d="M5626.877,1798.39453q-37.8457,0-57.49511-23.55957-19.65528-23.55762-19.65332-68.96973v-8.05664q0-29.5371,10.13183-68.11523,10.12792-38.57226,23.92578-68.96973a354.02972,354.02972,0,0,1,32.22657-56.76269,261.411,261.411,0,0,1,40.40527-45.89844q47.36133-41.748,97.90039-41.748,53.46679,0,69.33594,52.2461a114.58725,114.58725,0,0,1,5.37109,33.44726q0,15.873-1.58691,36.25489-1.59083,20.38768-10.13184,53.22265a379.31487,379.31487,0,0,1-54.56543,119.50684,259.30163,259.30163,0,0,1-39.917,45.89844Q5676.18946,1798.39844,5626.877,1798.39453Zm153.56446-309.57031q0-40.76953-31.00586-40.77149-29.29687,0-64.69727,44.67774-32.959,41.99414-57.61719,104.49219-25.63476,64.94531-29.541,120.36132-1.46484,22.95118,6.5918,36.01075,8.05664,13.06347,22.09472,13.06152a52.05854,52.05854,0,0,0,26.48926-7.20215,121.103,121.103,0,0,0,25.02441-19.89746,224.34239,224.34239,0,0,0,24.53614-29.90723,406.87473,406.87473,0,0,0,22.94922-37.35351q10.98632-20.14161,20.38574-42.3584,9.39551-22.21289,16.72363-44.92187,18.06446-56.88282,18.06641-91.3086Z" transform="translate(-2384.22559 -1234.97119)"/></svg>